<svg width="16" height="16" fill="none" xmlns="http://www.w3.org/2000/svg"><path fill="#81B3D3" d="M0 0h16v16H0z"/><path d="M5.36155 10.0419c.01129.0121.017.024.017.0361.01144 0 .02272.0059.03401.0179.30634.3598.65256.6957 1.03835 1.0075.38579.2998.82845.4617 1.32769.4857.01143 0 .02272.0062.034.0181h.05116c.01128 0 .02272.0059.034.018h.18718c.05687-.0121.10788-.024.15332-.0361.1819-.0361.35537-.1094.51067-.2158.17003-.108.30063-.24.39136-.3958l.03415-.0721.03401-.0719c.02272-.0839.03972-.1619.05116-.2339.01128-.0719.017-.1379.017-.1978 0-.3238-.13632-.5937-.40851-.80966-.2538-.2235-.5416-.39992-.85117-.52178-.11643-.04541-.23593-.08145-.3575-.10783a4.414388 4.414388 0 00-.32335-.09001h-.034c-.01144-.01192-.02272-.01797-.03401-.01797-.55194-.14214-1.08006-.3727-1.56602-.68367-.4881-.32379-.82274-.78561-1.00435-1.38532a16.185837 16.185837 0 01-.10216-.37786 4.551357 4.551357 0 01-.05101-.41364.557267.557267 0 01-.017-.12611v-.43177c.01129-.09589.02829-.19179.05101-.28784.03524-.24499.09221-.48592.17017-.71962.07945-.23982.18161-.45578.30635-.64757.36321-.63581.82845-1.09159 1.39585-1.36735C7.02974 2.13788 7.63114 2 8.25526 2c.14761 0 .29506.01193.44266.03594.1594.01204.31833.03002.47652.05392.41394.07359.81913.19425 1.20856.35988.4085.16794.783.36577 1.1235.59366l-.9362 2.21292c-.3055-.23927-.6302-.44994-.97034-.62961-.34035-.18002-.70914-.26987-1.10636-.26987h-.13632c-.26091.03594-.50481.16189-.73186.3777-.2269.20388-.34035.42588-.34035.6657v.10798c.01129.03595.02829.07189.05101.10798.02272.08397.06244.1619.11917.23394.05672.07188.11917.13788.18718.19783.12488.10799.30634.20992.54482.30582.23819.08397.48795.16794.74901.25191.21546.05995.42536.11991.62969.17986.20433.04803.3745.09605.51065.14408.6354.23982 1.1121.64153 1.4299 1.2053.3176.55168.4822 1.13945.4935 1.76302v.09001c0 .07203-.0056.14403-.017.21593v.1979c-.068.6237-.2609 1.2173-.5787 1.7811-.3063.5638-.7206.9955-1.2425 1.2955-.19376.0962-.39272.1803-.59585.2517-.20286.0597-.40716.1137-.61269.1621a3.747653 3.747653 0 01-.51067.0719c-.16363.0235-.32854.0355-.49367.0359h-.18733c-.68084-.0239-1.35026-.1799-2.00853-.4679-.65813-.2997-1.24253-.6956-1.75306-1.1873l1.36155-2.3029z" fill="#fff"/></svg>