<svg width="21" height="23" fill="none" xmlns="http://www.w3.org/2000/svg"><path fill-rule="evenodd" clip-rule="evenodd" d="M16.406 3.02498h2.845c.966 0 1.749.822 1.749 1.837V21.164C21 22.179 20.217 23 19.251 23H1.75C.784 23 0 22.179 0 21.164V4.86198c0-1.015.784-1.837 1.75-1.837h2.843v-1.377c0-.381.294-.688996.657-.688996.362 0 .656.307996.656.688996v1.377h3.938v-1.377c0-.381.294-.688996.657-.688996.361 0 .655.307996.655.688996v1.377h3.938v-1.377c0-.381.293-.688996.656-.688996.362 0 .656.307996.656.688996v1.377zM19.5646 21.484c.082-.0861.1264-.2012.1234-.32h.001V4.86198c0-.253-.196-.459-.437-.459h-2.845v1.378c0 .381-.294.689-.656.689-.363 0-.656-.308-.656-.689v-1.378h-3.938v1.378c0 .381-.294.689-.655.689-.363 0-.657-.308-.657-.689v-1.378H5.907v1.378c0 .381-.294.689-.656.689-.363 0-.657-.308-.657-.689v-1.378H1.75c-.24737.00655-.44304.2116-.438.459V21.164c-.00504.2474.19063.4524.438.459h17.501c.1188-.0029.2316-.0529.3136-.139z" fill="#A9A9A9"/><path fill-rule="evenodd" clip-rule="evenodd" d="M4.59399 9.2251h2.625v2.066h-2.625v-2.066zm0 3.443h2.625v2.067h-2.625v-2.067zm2.625 3.444h-2.625v2.066h2.625v-2.066zm1.969 0H11.813v2.066H9.18799v-2.066zm2.62501-3.444H9.18799v2.067H11.813v-2.067zm-2.62501-3.443H11.813v2.066H9.18799v-2.066zm7.21801 6.887h-2.625v2.066h2.625v-2.066zm-2.625-3.444h2.625v2.067h-2.625v-2.067zm2.625-3.443h-2.625v2.066h2.625v-2.066z" fill="#A9A9A9"/></svg>